<mxfile host="Electron" modified="2025-03-23T17:21:18.982Z" agent="Mozilla/5.0 (Windows NT 10.0; Win64; x64) AppleWebKit/537.36 (KHTML, like Gecko) draw.io/24.4.13 Chrome/124.0.6367.207 Electron/30.0.6 Safari/537.36" etag="4UO_sE3uNoq45B_ypGgh" version="24.4.13" type="device">
  <diagram name="第 1 页" id="rNhl-V-0UYqIHoZhva7q">
    <mxGraphModel dx="1230" dy="782" grid="1" gridSize="10" guides="1" tooltips="1" connect="1" arrows="1" fold="1" page="1" pageScale="1" pageWidth="1600" pageHeight="1200" math="0" shadow="0">
      <root>
        <mxCell id="0" />
        <mxCell id="1" parent="0" />
        <mxCell id="tFGXdAHNV7G_1KBKyQqW-1" value="TestBase 抽象类" style="rounded=0;whiteSpace=wrap;html=1;fontSize=15;fontStyle=1" vertex="1" parent="1">
          <mxGeometry x="1010" y="490" width="120" height="50" as="geometry" />
        </mxCell>
        <mxCell id="tFGXdAHNV7G_1KBKyQqW-2" value="&lt;div style=&quot;font-size: 14px;&quot;&gt;TestClassFactory&lt;br style=&quot;font-size: 14px;&quot;&gt;&lt;/div&gt;全局单例" style="rounded=0;whiteSpace=wrap;html=1;fontSize=14;fontStyle=1" vertex="1" parent="1">
          <mxGeometry x="310" y="320" width="120" height="50" as="geometry" />
        </mxCell>
        <mxCell id="tFGXdAHNV7G_1KBKyQqW-3" value="" style="endArrow=classic;html=1;rounded=0;exitX=0.5;exitY=1;exitDx=0;exitDy=0;entryX=0.5;entryY=0;entryDx=0;entryDy=0;" edge="1" parent="1" source="tFGXdAHNV7G_1KBKyQqW-2" target="tFGXdAHNV7G_1KBKyQqW-4">
          <mxGeometry width="50" height="50" relative="1" as="geometry">
            <mxPoint x="600" y="430" as="sourcePoint" />
            <mxPoint x="370" y="410" as="targetPoint" />
          </mxGeometry>
        </mxCell>
        <mxCell id="tFGXdAHNV7G_1KBKyQqW-4" value="成员变量 std::map&amp;lt; std::string , TestBase&amp;gt; dict_ ;" style="rounded=0;whiteSpace=wrap;html=1;fontSize=13;" vertex="1" parent="1">
          <mxGeometry x="220" y="410" width="300" height="60" as="geometry" />
        </mxCell>
        <mxCell id="tFGXdAHNV7G_1KBKyQqW-5" value="A库的测试类" style="rounded=0;whiteSpace=wrap;html=1;fontSize=13;" vertex="1" parent="1">
          <mxGeometry x="710" y="330" width="170" height="50" as="geometry" />
        </mxCell>
        <mxCell id="tFGXdAHNV7G_1KBKyQqW-6" value="B库的测试类" style="rounded=0;whiteSpace=wrap;html=1;fontSize=13;" vertex="1" parent="1">
          <mxGeometry x="710" y="400" width="170" height="50" as="geometry" />
        </mxCell>
        <mxCell id="tFGXdAHNV7G_1KBKyQqW-7" value="BoostJsonTest" style="rounded=0;whiteSpace=wrap;html=1;fontSize=13;" vertex="1" parent="1">
          <mxGeometry x="710" y="470" width="170" height="50" as="geometry" />
        </mxCell>
        <mxCell id="tFGXdAHNV7G_1KBKyQqW-8" value="BoostJsonTest" style="rounded=0;whiteSpace=wrap;html=1;fontSize=13;" vertex="1" parent="1">
          <mxGeometry x="710" y="540" width="170" height="50" as="geometry" />
        </mxCell>
        <mxCell id="tFGXdAHNV7G_1KBKyQqW-9" value="QJsonTest" style="rounded=0;whiteSpace=wrap;html=1;fontSize=13;" vertex="1" parent="1">
          <mxGeometry x="710" y="610" width="170" height="50" as="geometry" />
        </mxCell>
        <mxCell id="tFGXdAHNV7G_1KBKyQqW-11" value="............." style="rounded=0;whiteSpace=wrap;html=1;fontStyle=1" vertex="1" parent="1">
          <mxGeometry x="710" y="680" width="170" height="50" as="geometry" />
        </mxCell>
        <mxCell id="tFGXdAHNV7G_1KBKyQqW-14" value="继承抽象类&lt;div&gt;实现全部虚函数&lt;/div&gt;" style="endArrow=classic;html=1;rounded=0;exitX=0;exitY=0.5;exitDx=0;exitDy=0;entryX=1;entryY=0.5;entryDx=0;entryDy=0;fontSize=13;" edge="1" parent="1" source="tFGXdAHNV7G_1KBKyQqW-1" target="tFGXdAHNV7G_1KBKyQqW-5">
          <mxGeometry x="0.1247" y="-56" width="50" height="50" relative="1" as="geometry">
            <mxPoint x="890" y="290" as="sourcePoint" />
            <mxPoint x="980" y="520" as="targetPoint" />
            <mxPoint as="offset" />
          </mxGeometry>
        </mxCell>
        <mxCell id="tFGXdAHNV7G_1KBKyQqW-15" value="" style="endArrow=classic;html=1;rounded=0;exitX=0;exitY=0.5;exitDx=0;exitDy=0;entryX=1;entryY=0.5;entryDx=0;entryDy=0;" edge="1" parent="1" source="tFGXdAHNV7G_1KBKyQqW-1" target="tFGXdAHNV7G_1KBKyQqW-6">
          <mxGeometry width="50" height="50" relative="1" as="geometry">
            <mxPoint x="600" y="500" as="sourcePoint" />
            <mxPoint x="650" y="450" as="targetPoint" />
          </mxGeometry>
        </mxCell>
        <mxCell id="tFGXdAHNV7G_1KBKyQqW-16" value="" style="endArrow=classic;html=1;rounded=0;exitX=0;exitY=0.5;exitDx=0;exitDy=0;entryX=1;entryY=0.5;entryDx=0;entryDy=0;" edge="1" parent="1" source="tFGXdAHNV7G_1KBKyQqW-1" target="tFGXdAHNV7G_1KBKyQqW-7">
          <mxGeometry width="50" height="50" relative="1" as="geometry">
            <mxPoint x="600" y="500" as="sourcePoint" />
            <mxPoint x="650" y="450" as="targetPoint" />
          </mxGeometry>
        </mxCell>
        <mxCell id="tFGXdAHNV7G_1KBKyQqW-17" value="" style="endArrow=classic;html=1;rounded=0;exitX=0;exitY=0.5;exitDx=0;exitDy=0;entryX=1;entryY=0.5;entryDx=0;entryDy=0;" edge="1" parent="1" source="tFGXdAHNV7G_1KBKyQqW-1" target="tFGXdAHNV7G_1KBKyQqW-8">
          <mxGeometry width="50" height="50" relative="1" as="geometry">
            <mxPoint x="600" y="500" as="sourcePoint" />
            <mxPoint x="650" y="450" as="targetPoint" />
          </mxGeometry>
        </mxCell>
        <mxCell id="tFGXdAHNV7G_1KBKyQqW-18" value="" style="endArrow=classic;html=1;rounded=0;exitX=0;exitY=0.5;exitDx=0;exitDy=0;entryX=1;entryY=0.5;entryDx=0;entryDy=0;" edge="1" parent="1" source="tFGXdAHNV7G_1KBKyQqW-1" target="tFGXdAHNV7G_1KBKyQqW-9">
          <mxGeometry width="50" height="50" relative="1" as="geometry">
            <mxPoint x="600" y="500" as="sourcePoint" />
            <mxPoint x="650" y="450" as="targetPoint" />
          </mxGeometry>
        </mxCell>
        <mxCell id="tFGXdAHNV7G_1KBKyQqW-19" value="" style="endArrow=classic;html=1;rounded=0;exitX=0;exitY=0.5;exitDx=0;exitDy=0;entryX=1;entryY=0.5;entryDx=0;entryDy=0;" edge="1" parent="1" source="tFGXdAHNV7G_1KBKyQqW-1" target="tFGXdAHNV7G_1KBKyQqW-11">
          <mxGeometry width="50" height="50" relative="1" as="geometry">
            <mxPoint x="600" y="500" as="sourcePoint" />
            <mxPoint x="650" y="450" as="targetPoint" />
          </mxGeometry>
        </mxCell>
        <mxCell id="tFGXdAHNV7G_1KBKyQqW-21" value="宏函数：&lt;div style=&quot;font-size: 14px;&quot;&gt;REGISTER_CLASS(库名, 子类名)&lt;br style=&quot;font-size: 14px;&quot;&gt;&lt;/div&gt;" style="rounded=0;whiteSpace=wrap;html=1;fontSize=14;fontStyle=1" vertex="1" parent="1">
          <mxGeometry x="500" y="260" width="230" height="60" as="geometry" />
        </mxCell>
        <mxCell id="tFGXdAHNV7G_1KBKyQqW-22" value="" style="endArrow=classic;html=1;rounded=0;exitX=0;exitY=0.5;exitDx=0;exitDy=0;entryX=1;entryY=0.5;entryDx=0;entryDy=0;" edge="1" parent="1" source="tFGXdAHNV7G_1KBKyQqW-5" target="tFGXdAHNV7G_1KBKyQqW-4">
          <mxGeometry width="50" height="50" relative="1" as="geometry">
            <mxPoint x="600" y="430" as="sourcePoint" />
            <mxPoint x="650" y="380" as="targetPoint" />
          </mxGeometry>
        </mxCell>
        <mxCell id="tFGXdAHNV7G_1KBKyQqW-23" value="" style="endArrow=classic;html=1;rounded=0;exitX=0;exitY=0.5;exitDx=0;exitDy=0;entryX=1;entryY=0.5;entryDx=0;entryDy=0;" edge="1" parent="1" source="tFGXdAHNV7G_1KBKyQqW-6" target="tFGXdAHNV7G_1KBKyQqW-4">
          <mxGeometry width="50" height="50" relative="1" as="geometry">
            <mxPoint x="600" y="430" as="sourcePoint" />
            <mxPoint x="650" y="380" as="targetPoint" />
          </mxGeometry>
        </mxCell>
        <mxCell id="tFGXdAHNV7G_1KBKyQqW-24" value="" style="endArrow=classic;html=1;rounded=0;exitX=0;exitY=0.5;exitDx=0;exitDy=0;entryX=1;entryY=0.5;entryDx=0;entryDy=0;" edge="1" parent="1" source="tFGXdAHNV7G_1KBKyQqW-7" target="tFGXdAHNV7G_1KBKyQqW-4">
          <mxGeometry width="50" height="50" relative="1" as="geometry">
            <mxPoint x="600" y="430" as="sourcePoint" />
            <mxPoint x="650" y="380" as="targetPoint" />
          </mxGeometry>
        </mxCell>
        <mxCell id="tFGXdAHNV7G_1KBKyQqW-25" value="" style="endArrow=classic;html=1;rounded=0;exitX=0;exitY=0.5;exitDx=0;exitDy=0;entryX=1;entryY=0.5;entryDx=0;entryDy=0;" edge="1" parent="1" source="tFGXdAHNV7G_1KBKyQqW-8" target="tFGXdAHNV7G_1KBKyQqW-4">
          <mxGeometry width="50" height="50" relative="1" as="geometry">
            <mxPoint x="600" y="430" as="sourcePoint" />
            <mxPoint x="650" y="380" as="targetPoint" />
          </mxGeometry>
        </mxCell>
        <mxCell id="tFGXdAHNV7G_1KBKyQqW-26" value="" style="endArrow=classic;html=1;rounded=0;exitX=0;exitY=0.5;exitDx=0;exitDy=0;entryX=1;entryY=0.5;entryDx=0;entryDy=0;" edge="1" parent="1" source="tFGXdAHNV7G_1KBKyQqW-9" target="tFGXdAHNV7G_1KBKyQqW-4">
          <mxGeometry width="50" height="50" relative="1" as="geometry">
            <mxPoint x="600" y="430" as="sourcePoint" />
            <mxPoint x="650" y="380" as="targetPoint" />
          </mxGeometry>
        </mxCell>
        <mxCell id="tFGXdAHNV7G_1KBKyQqW-27" value="" style="endArrow=classic;html=1;rounded=0;exitX=0;exitY=0.5;exitDx=0;exitDy=0;entryX=1;entryY=0.5;entryDx=0;entryDy=0;" edge="1" parent="1" source="tFGXdAHNV7G_1KBKyQqW-11" target="tFGXdAHNV7G_1KBKyQqW-4">
          <mxGeometry width="50" height="50" relative="1" as="geometry">
            <mxPoint x="600" y="430" as="sourcePoint" />
            <mxPoint x="650" y="380" as="targetPoint" />
          </mxGeometry>
        </mxCell>
        <mxCell id="tFGXdAHNV7G_1KBKyQqW-28" value="通过宏函数&lt;div style=&quot;font-size: 14px;&quot;&gt;自动创建实例对象&lt;/div&gt;&lt;div style=&quot;font-size: 14px;&quot;&gt;并加入dict_中&lt;/div&gt;" style="text;html=1;align=center;verticalAlign=middle;whiteSpace=wrap;rounded=0;fontSize=14;" vertex="1" parent="1">
          <mxGeometry x="520" y="320" width="170" height="70" as="geometry" />
        </mxCell>
        <mxCell id="tFGXdAHNV7G_1KBKyQqW-29" value="&lt;div style=&quot;font-size: 14px;&quot;&gt;主函数&lt;/div&gt;main()" style="rounded=1;whiteSpace=wrap;html=1;fontSize=14;fontStyle=1" vertex="1" parent="1">
          <mxGeometry x="315" y="530" width="110" height="50" as="geometry" />
        </mxCell>
        <mxCell id="tFGXdAHNV7G_1KBKyQqW-30" value="" style="endArrow=classic;html=1;rounded=0;exitX=0;exitY=0.5;exitDx=0;exitDy=0;entryX=0;entryY=0.5;entryDx=0;entryDy=0;" edge="1" parent="1" source="tFGXdAHNV7G_1KBKyQqW-29" target="tFGXdAHNV7G_1KBKyQqW-2">
          <mxGeometry width="50" height="50" relative="1" as="geometry">
            <mxPoint x="600" y="530" as="sourcePoint" />
            <mxPoint x="150" y="350" as="targetPoint" />
            <Array as="points">
              <mxPoint x="150" y="555" />
              <mxPoint x="150" y="345" />
            </Array>
          </mxGeometry>
        </mxCell>
        <mxCell id="tFGXdAHNV7G_1KBKyQqW-31" value="获取单例" style="text;html=1;align=center;verticalAlign=middle;whiteSpace=wrap;rounded=0;fontSize=13;" vertex="1" parent="1">
          <mxGeometry x="250" y="530" width="60" height="30" as="geometry" />
        </mxCell>
        <mxCell id="tFGXdAHNV7G_1KBKyQqW-32" value="调用内部函数 测试 并输出结果" style="rounded=0;whiteSpace=wrap;html=1;fontSize=15;fontStyle=1" vertex="1" parent="1">
          <mxGeometry x="205" y="630" width="330" height="100" as="geometry" />
        </mxCell>
        <mxCell id="tFGXdAHNV7G_1KBKyQqW-33" value="" style="endArrow=classic;html=1;rounded=0;exitX=0.5;exitY=1;exitDx=0;exitDy=0;entryX=0.5;entryY=0;entryDx=0;entryDy=0;" edge="1" parent="1" source="tFGXdAHNV7G_1KBKyQqW-29" target="tFGXdAHNV7G_1KBKyQqW-32">
          <mxGeometry width="50" height="50" relative="1" as="geometry">
            <mxPoint x="600" y="530" as="sourcePoint" />
            <mxPoint x="650" y="480" as="targetPoint" />
          </mxGeometry>
        </mxCell>
        <mxCell id="tFGXdAHNV7G_1KBKyQqW-34" value="遍历dict_" style="text;html=1;align=center;verticalAlign=middle;whiteSpace=wrap;rounded=0;fontSize=13;" vertex="1" parent="1">
          <mxGeometry x="360" y="590" width="95" height="30" as="geometry" />
        </mxCell>
      </root>
    </mxGraphModel>
  </diagram>
</mxfile>
